<svg xmlns="http://www.w3.org/2000/svg" xmlns:xlink="http://www.w3.org/1999/xlink" viewBox="0 0 416.5 84.3">
    <path d="M73.3.2c.6-.2 1.2-.2 1.8-.2h13.6c.9-.1 1.8.6 1.7 1.6-.4 3-1 6-1.5 9-.2 1.2-.3 2.5-1.1 3.4-.6.6-1.5.6-2.2.6h-13c-.7 0-1.5.1-2.1-.5s-.4-1.5-.3-2.3c.5-3.1 1.1-6.2 1.6-9.2.1-.9.5-2 1.5-2.4zm272.1 0c1.7-.4 3.5-.1 5.3-.2h10.4c1 0 1.6.9 1.3 1.8-.5 3.4-1.1 6.8-1.7 10.2-.2 1.3-1.1 2.6-2.5 2.5-4.9 0-9.7.1-14.6 0-1 0-1.7-.9-1.5-1.9.5-3.3 1.1-6.5 1.6-9.8.3-1 .7-2.2 1.7-2.6zM12.9 26.9c5.8-4.5 13.2-6.3 20.4-6.4 7.7 0 15.5.7 23 2.6 1 .3 2 .5 2.8 1.3.5.7.3 1.6.2 2.4-3.1 18-6.3 36-9.4 53.9-.2 1.1-.7 2.5-2 2.5-3.7.1-7.4 0-11.1.1-.9.1-2.3-.2-2.4-1.3 0-1.3.3-2.6.5-3.9-3.7 2.9-8.1 5.2-12.8 5.9-5.2.8-11 .2-15.2-3.2C2.8 77.6.8 72.5.2 67.4c-.6-4 0-8.1.7-12.1.9-4.4 1.3-8.9 2.6-13.3 1.6-5.8 4.6-11.4 9.4-15.1m9.9 12.4c-3.1 4.9-3.4 10.8-4.5 16.4-.5 3.7-1.9 7.8-.2 11.4.7 1.7 2.5 2.6 4.2 2.7 4.5.4 8.7-1.7 12.6-3.7 1.8-10.1 3.5-20.2 5.3-30.3-3.5-.4-7.1-.9-10.6-.5-2.7.2-5.4 1.6-6.8 4zm149.1-18.4c5.6-.7 11.2-.3 16.8.2 4 .4 8.1 1.1 12 2.2.8.3 2 .6 2.3 1.6.2 1.1-.1 2.3-.3 3.4-3 17-5.9 34-8.9 50.9-.2 1.1-.3 2.4-1 3.4-.5.7-1.4.6-2.2.7h-10.5c-.9 0-2-.4-2.1-1.3 0-1.3.3-2.6.5-3.9-3.6 2.8-7.6 5-12.1 5.8-5.3.9-11.1.5-15.5-2.8-4.2-3-6.4-8.1-7-13.1-.7-4.4-.1-8.8.7-13.2.7-3.3 1-6.6 1.8-9.9 1.3-5.9 3.7-11.7 8-16 4.7-4.7 11.1-7.2 17.5-8m-1.1 14.9c-3.3 1-5.2 4.2-6.3 7.3-1.5 4.3-1.9 9-2.8 13.5-.6 3.5-1.7 7.4.1 10.7.8 1.8 2.9 2.5 4.8 2.5 4.3.2 8.2-1.8 11.9-3.8 1.8-10.1 3.5-20.2 5.3-30.3-4.3-.4-8.8-1.3-13 .1zm56.7-9.7c5-3.8 11.4-5.7 17.7-5.6 4.2.2 8.6 1.4 11.7 4.4 3.2 3.1 4.8 7.6 4.9 12 .3 4.5-.8 9-1.5 13.4-1.8 10.1-3.5 20.1-5.3 30.2-.1 1.6-1.6 2.9-3.2 2.8h-12.3c-.6 0-1.3 0-1.7-.5-.7-.8-.4-1.9-.3-2.9 2.1-11.9 4.1-23.7 6.2-35.6.3-2.1.8-4.4 0-6.5-.7-1.9-3-2.6-4.8-2.7-4.3-.2-8.5 1.5-12.3 3.4-2.5 14.1-4.9 28.2-7.4 42.3-.2 1.4-1.6 2.7-3 2.5-4.3 0-8.6.1-13 0-1.4 0-1.8-1.6-1.5-2.7 3.3-19 6.7-38 10-56.9.2-1.4 1.4-2.6 2.8-2.5h11.7c.7 0 1.5.5 1.6 1.3.3 1.2-.1 2.4-.3 3.6zm161.2-5.3c5.5-.5 11.2-.4 16.4 1.9 4.4 1.9 7.9 5.7 9.7 10.1 1.3 3.1 1.7 6.5 1.7 9.8-.1 4.1-1.1 8.2-1.8 12.2-1 5.9-2.7 11.7-5.9 16.8-2.4 3.8-5.7 7.2-9.7 9.2-5.7 2.9-12.1 3.6-18.4 3.4-5.9-.2-12-2.5-16-7.1-3.7-4.2-5.1-9.9-5.1-15.3-.1-3.9 1-7.8 1.6-11.6 1.1-6.2 2.7-12.4 6.2-17.6 2.2-3.5 5.4-6.4 9.1-8.4 3.8-2 8-3 12.2-3.4m0 14.8c-3.1.5-5.8 2.6-7.2 5.4-2 3.8-2.5 8.2-3.3 12.4-.6 3.2-1.3 6.5-1 9.8.2 2.1 1 4.3 2.8 5.4 2.1 1.3 4.6 1.3 7 1.1 2.6-.3 5-1.6 6.5-3.8 2.6-3.8 3.3-8.4 4.1-12.8.6-3.5 1.5-6.9 1.3-10.5-.1-2.2-.8-4.5-2.6-5.8-2.2-1.6-5.1-1.6-7.6-1.2zM70.2 21.4c.4-.2.9-.2 1.4-.2H84c.7 0 1.6.1 2.1.7.3.5.2 1.2.1 1.8-3.4 19-6.7 38.1-10.1 57.1-.2.8-.4 1.6-1 2.2-.6.4-1.4.4-2.1.4H60.7c-.6 0-1.3 0-1.8-.5-.5-.6-.4-1.4-.3-2.1 3.4-19 6.7-38.1 10.1-57.1 0-1 .6-1.9 1.5-2.3zm22.6-.1c.5-.2 1-.1 1.5-.1h13c1.3-.1 1.8 1.4 1.9 2.5.6 13.5 1.2 26.9 1.8 40.4.1 1.1 0 2.2.3 3.3.2.5.7 1 1.3.8.9-.3 1.4-1.2 1.7-2.1l16.8-42.6c.5-1.2 1.5-2.5 2.9-2.4h14.9c.7 0 1.3.6 1.3 1.2 0 1-.5 1.9-.9 2.9-7.3 16.1-14.6 32.2-21.9 48.2-2 4.4-5.6 8.4-10.4 9.8-4.4 1.2-9.2 1.4-13.6 0-4.1-1.3-6.5-5.4-6.9-9.5-1.7-16.3-3.2-32.6-4.9-48.9-.2-1.1-.2-2.9 1.2-3.5zm249.5.1c.4-.2.9-.2 1.4-.2H356c.7 0 1.4 0 2 .6.5.5.3 1.3.2 1.9-3.4 19-6.7 38.1-10.1 57.1-.2 1-.6 2.2-1.6 2.4-1.7.3-3.4.1-5 .1-3.3-.1-6.5.1-9.8-.1-1.2-.1-1.4-1.5-1.1-2.5 3.4-19.1 6.7-38.1 10.1-57.2.1-.8.7-1.7 1.6-2.1z" fill="#fff"/>
    <defs>
        <path id="a" d="M231.7-54.2h137.6V83.4H231.7z"/>
    </defs>
    <clipPath id="b">
        <use xlink:href="#a" overflow="visible"/>
    </clipPath>
    <path d="M300.5-37.7l-51.2 18.2 7.8 67.8 43.4 24 43.4-24 7.9-67.8-51.3-18.2z" clip-path="url(#b)" fill="#ff8e01"/>
    <g>
        <defs>
            <path id="c" d="M231.7-54.2h137.6V83.4H231.7z"/>
        </defs>
        <clipPath id="d">
            <use xlink:href="#c" overflow="visible"/>
        </clipPath>
        <path d="M300.5-37.7v12.2-.1 97.9l43.4-24 7.9-67.8-51.3-18.2z" clip-path="url(#d)" fill="#d16e02"/>
    </g>
    <g>
        <defs>
            <path id="e" d="M231.7-54.2h137.6V83.4H231.7z"/>
        </defs>
        <clipPath id="f">
            <use xlink:href="#e" overflow="visible"/>
        </clipPath>
        <path d="M309.9 20.3h-18.7l9.4-22.5 9.3 22.5zm-9.4-45.9l-32 71.8h11.9l6.4-16.1H314l6.4 16.1h11.9l-31.8-71.8z" clip-path="url(#f)" fill="#fff"/>
    </g>
</svg>
