<?xml version="1.0" encoding="utf-8"?>
<!-- Generator: Adobe Illustrator 23.0.1, SVG Export Plug-In . SVG Version: 6.00 Build 0)  -->
<svg version="1.1" id="Layer_1" xmlns="http://www.w3.org/2000/svg" xmlns:xlink="http://www.w3.org/1999/xlink" x="0px" y="0px"
	 viewBox="0 0 484 219" style="enable-background:new 0 0 484 219;" xml:space="preserve">
<style type="text/css">
	.st0{fill:#FF8E01;}
	.st1{fill:#CC7303;}
	.st2{fill:#FFFFFF;}
	.st3{fill:#FEFEFE;}
</style>
<g>
	<path class="st0" d="M214.1,67.8c22.5,0.1,45,0.2,67.4,0.2c0.4,0,0.9-0.1,1.2,0.3c-6.4,0.1-12.7-0.1-19.1-0.1
		c-4.9,0-9.8-0.2-14.7-0.1c-0.1,2.9,0,5.7-0.1,8.6c-2.5,0-5,0-7.5,0c-8.2,21.1-16.4,42.2-24.6,63.3c4.5,0,9.1,0,13.6,0
		c1.7-4.8,3.5-9.6,5.2-14.4c4.3,0,8.6,0,13,0c0,15.9-0.3,31.8-0.5,47.7c-17.8-13-35.6-26-53.3-39c-0.6-0.5-1.3-0.9-1.9-1.4
		c4.4-13.6,8.9-27.1,13.3-40.7C208.8,84.1,211.5,76,214.1,67.8z"/>
	<path class="st0" d="M239.6,115c2.8-7.8,5.7-15.5,8.5-23.3c0.3,0.9,0.7,1.8,0.9,2.7c-0.4,6.9-0.1,13.8-0.2,20.6
		C245.7,115,242.6,115,239.6,115z"/>
</g>
<g>
	<path class="st1" d="M249,68.2c4.9-0.1,9.8,0.1,14.7,0.1c6.4,0,12.7,0.1,19.1,0.1c3.4,10.9,7,21.8,10.5,32.7
		c2.9,9,5.8,17.9,8.7,26.9c0.5,1.9,1.3,3.7,1.7,5.6c-6.1,4.6-12.3,8.9-18.5,13.5c-12.3,8.9-24.7,17.8-37,26.7c0-0.1,0-0.3,0-0.4
		c0.2-15.9,0.5-31.8,0.5-47.7c4,0,8.1,0,12.1,0c1.8,4.8,3.7,9.6,5.5,14.4c4.6,0,9.3,0,13.9,0c-8.4-21.1-16.8-42.2-25.2-63.3
		c-2,0-4.1,0-6.1,0C248.9,73.9,248.9,71.1,249,68.2z"/>
	<path class="st1" d="M249,94.3c2.7,6.8,5.1,13.8,7.7,20.6c-2.7,0-5.3,0-7.9,0C248.8,108.1,248.6,101.2,249,94.3z"/>
</g>
<g>
	<path class="st2" d="M129,69.4c0.6-0.2,1.3-0.2,1.9-0.2c4.9,0,9.9,0,14.8,0c1-0.1,2,0.6,1.8,1.7c-0.4,3.3-1.1,6.5-1.6,9.8
		c-0.2,1.3-0.3,2.7-1.2,3.6c-0.6,0.7-1.6,0.6-2.5,0.7c-4.8,0-9.6,0-14.4,0c-0.7,0-1.4,0-1.9-0.5c-0.6-0.6-0.4-1.5-0.3-2.2
		c0.6-3.4,1.2-6.9,1.8-10.3C127.5,71,128,69.8,129,69.4z"/>
	<path class="st2" d="M368,69.4c0.6-0.2,1.3-0.2,1.9-0.2c4.9,0,9.9,0,14.8,0c1-0.1,2,0.7,1.8,1.7c-0.4,3.4-1.1,6.7-1.7,10
		c-0.2,1.3-0.3,2.7-1.4,3.6c-0.7,0.6-1.7,0.5-2.6,0.5c-4.9,0-9.9,0.1-14.8,0c-1.1,0-1.8-1.1-1.6-2.1c0.5-3.6,1.2-7.1,1.8-10.7
		C366.5,71.2,366.9,69.9,368,69.4z"/>
	<path class="st2" d="M78.5,92.2c4.4-0.7,8.8-0.7,13.2-0.5c5.8,0.3,11.6,1,17.2,2.3c1.5,0.4,3,0.7,4.3,1.5c1,0.6,0.7,2,0.6,2.9
		c-3.4,19.7-6.8,39.3-10.3,59c-0.2,1.1-0.8,2.5-2.1,2.5c-4.1,0.1-8.3,0-12.4,0.1c-0.9,0-2.1-0.4-2.3-1.4c0-1.5,0.3-2.9,0.5-4.3
		c-4.1,3.3-9,5.8-14.2,6.5c-5.3,0.7-11,0.2-15.5-3c-5-3.4-7.5-9.5-8.2-15.3c-0.9-6.9,1.1-13.7,2-20.5c1.2-6.9,3.3-14,7.9-19.5
		C64,96.7,71.2,93.4,78.5,92.2 M79.7,107.9c-2.9,0.6-5.2,2.7-6.5,5.4c-2.2,4-2.8,8.6-3.5,13.1c-0.5,3-1,5.9-1.5,8.9
		c-0.4,2.7-0.4,5.6,1.2,8c1,1.6,3.1,2,4.8,2c4.7,0.2,9-2,13-4.1c1.9-11,3.9-22,5.8-33C88.6,107.6,84.1,106.9,79.7,107.9z"/>
	<path class="st2" d="M311.5,97.7c6.3-4.7,14.6-6.9,22.4-5.8c5.1,0.7,10,3.6,12.4,8.2c2.9,5.1,2.9,11.4,2.1,17.1
		c-1.5,8.9-3.1,17.8-4.6,26.7c-1.7,0-3.4-0.1-5.1,0c-1.7,0-3.1,1.4-3.4,3.1c-0.8,4.4-1.5,8.7-2.3,13.1c-3,0-6.1,0.1-9.1,0
		c-0.9,0-1.6-0.8-1.6-1.7c-0.1-1.1,0.2-2.1,0.4-3.2c2.2-12.6,4.4-25.2,6.6-37.8c0.3-2.3,0.8-4.7,0-6.9c-0.8-2.1-3.2-2.9-5.3-3
		c-4.7-0.2-9.3,1.6-13.4,3.7c-2.7,15.3-5.4,30.5-8,45.8c-0.2,1.5-1.4,3.1-3,3.1c-4.5,0-9,0-13.4,0c-0.8,0-1.6,0.1-2.2-0.6
		c-0.7-0.7-0.6-1.8-0.5-2.7c0.6-3.2,1.1-6.5,1.7-9.7c6.1-4.5,12.4-8.8,18.5-13.5c-0.4-1.9-1.2-3.7-1.7-5.6c-2.9-9-5.8-17.9-8.7-26.9
		c0.3-2,0.7-4,1-6c0.2-1.5,1.5-2.9,3.1-2.7c4.3,0,8.5,0,12.8,0c0.8,0,1.6,0.5,1.7,1.4C312.1,95,311.6,96.3,311.5,97.7z"/>
	<path class="st2" d="M415.2,91.8c6.3-0.6,13-0.4,18.7,2.5c4.8,2.4,8.5,6.8,10.1,11.9c1.7,5.1,1.7,10.7,0.7,16
		c-1.2,6.2-2,12.5-4.4,18.4c-2.5,6.5-6.7,12.6-12.8,16.1c-6.3,3.6-13.7,4.5-20.8,4.3c-6.5-0.2-13.1-2.6-17.5-7.5
		c-4.1-4.5-5.8-10.9-5.7-16.9c-0.1-4.3,1.1-8.5,1.8-12.7c1.2-6.8,3-13.6,6.9-19.4c2.7-4.1,6.6-7.5,11.1-9.6
		C407,93.2,411.1,92.2,415.2,91.8 M415.2,108c-2.9,0.5-5.6,2.3-7.2,4.8c-2.1,3.3-2.9,7.3-3.6,11.1c-0.7,3.9-1.6,7.7-1.8,11.7
		c-0.1,2.6,0.2,5.6,2.2,7.5c2.1,2,5.2,2.2,7.9,2c2.9-0.2,5.7-1.4,7.4-3.8c2.9-3.8,3.8-8.7,4.6-13.3c0.6-3.8,1.6-7.5,1.6-11.4
		c0-2.6-0.6-5.5-2.7-7.2C421.3,107.6,418,107.5,415.2,108z"/>
	<path class="st2" d="M125.6,92.5c0.5-0.3,1-0.2,1.6-0.2c4.6,0,9.2,0,13.8,0c0.8,0,1.7,0.3,2,1c0.2,0.9-0.1,1.8-0.2,2.7
		c-3.6,20.4-7.2,40.8-10.8,61.3c-0.2,1.3-0.9,2.8-2.4,2.7c-4.7,0.1-9.4,0-14.1,0.1c-0.8,0-1.7,0.1-2.3-0.5c-0.6-0.6-0.4-1.5-0.3-2.3
		c3.7-20.8,7.3-41.5,11-62.3C124,93.9,124.6,93,125.6,92.5z"/>
	<path class="st2" d="M148.9,95c-0.2-1.4,0.9-2.9,2.3-2.8c4.9,0,9.9,0,14.8,0c1.5-0.1,2,1.5,2.1,2.7c0.7,15.3,1.3,30.5,2,45.8
		c0.1,0.8,0.1,1.8,0.7,2.4c0.5,0.5,1.2,0.3,1.7-0.1c0.8-0.8,1.2-1.9,1.6-2.9c6-15.1,11.9-30.2,17.9-45.3c0.5-1.3,1.7-2.7,3.2-2.6
		c3.6,0,7.3,0,10.9,0c-4.4,13.6-8.9,27.1-13.3,40.7c0.6,0.5,1.3,0.9,1.9,1.4c-1.5,3.4-3.1,6.8-4.6,10.2c-1.6,3.5-3,7.3-5.6,10.2
		c-2.7,3.3-6.7,5.3-10.9,5.9c-3.9,0.6-8,0.6-11.7-0.6c-3.1-1-5.5-3.5-6.6-6.5c-0.9-2.1-1.1-4.4-1.3-6.6
		C152.3,129.6,150.6,112.3,148.9,95z"/>
	<path class="st2" d="M362.9,95c0.2-1.4,1.4-2.8,3-2.7c4.6,0,9.2,0,13.8,0c0.8,0,1.8,0.1,2.3,0.8c0.4,0.6,0.2,1.3,0.1,2
		c-3.7,20.7-7.3,41.5-11,62.2c-0.2,1.3-0.9,2.8-2.4,2.7c-4.3,0.1-8.5,0-12.8,0c0.7-4.1,1.5-8.3,2.2-12.4c0.2-1.1,0.4-2.5-0.6-3.3
		c-0.9-0.6-2.1-0.4-3.2-0.5C357.1,127.5,360,111.3,362.9,95z"/>
</g>
<g>
	<path class="st3" d="M241.4,76.8c2.5,0,5,0,7.5,0c2,0,4.1,0,6.1,0c8.4,21.1,16.8,42.2,25.2,63.3c-4.6,0-9.3,0-13.9,0
		c-1.8-4.8-3.7-9.6-5.5-14.4c-4,0-8.1,0-12.1,0c-4.3,0-8.6,0-13,0c-1.7,4.8-3.5,9.6-5.2,14.4c-4.5,0-9.1,0-13.6,0
		C225,119,233.2,97.9,241.4,76.8 M239.6,115c3,0,6.1,0,9.1,0c2.6,0,5.3,0,7.9,0c-2.6-6.9-5.1-13.8-7.7-20.6
		c-0.2-0.9-0.6-1.8-0.9-2.7C245.2,99.4,242.4,107.2,239.6,115z"/>
</g>
<g>
	<path class="st2" d="M335.2,147c0.2-1.6,1.7-3.1,3.4-3.1c1.7-0.1,3.4,0,5.1,0c3.5,0,7,0,10.6,0c1,0.1,2.2-0.2,3.2,0.5
		c1,0.8,0.7,2.2,0.6,3.3c-0.7,4.1-1.5,8.3-2.2,12.4c-0.6,2.2-0.2,4.9-2,6.6c-0.7,0.7-1.8,1.1-2.8,1c-5.6,0-11.3,0-16.9,0
		c-1.2,0-2.1-1.2-2-2.4c0.1-1.7,0.6-3.4,0.8-5.2C333.7,155.7,334.5,151.3,335.2,147z"/>
</g>
</svg>
